<svg width="18" height="18" viewBox="0 0 18 18" fill="none" xmlns="http://www.w3.org/2000/svg">
<path d="M9 12C11.206 12 13 10.206 13 8V5C13 2.794 11.206 1 9 1C6.794 1 5 2.794 5 5V8C5 10.206 6.794 12 9 12Z" fill="white"/>
<path d="M15.25 7.25C14.836 7.25 14.5 7.586 14.5 8C14.5 11.033 12.033 13.5 9 13.5C5.967 13.5 3.5 11.033 3.5 8C3.5 7.586 3.164 7.25 2.75 7.25C2.336 7.25 2 7.586 2 8C2 11.606 4.742 14.583 8.25 14.958V16.25C8.25 16.664 8.586 17 9 17C9.414 17 9.75 16.664 9.75 16.25V14.958C13.258 14.582 16 11.606 16 8C16 7.586 15.664 7.25 15.25 7.25Z" fill="white"/>
</svg>
